<?xml version="1.0" encoding="UTF-8"?>
<svg width="75px" height="75px" viewBox="0 0 75 75" version="1.1" xmlns="http://www.w3.org/2000/svg" xmlns:xlink="http://www.w3.org/1999/xlink">
    <!-- Generator: Sketch 43.2 (39069) - http://www.bohemiancoding.com/sketch -->
    <title>analyze-icon</title>
    <desc>Created with Sketch.</desc>
    <defs></defs>
    <g id="Page-1" stroke="none" stroke-width="1" fill="none" fill-rule="evenodd">
        <g id="Desktop-HD" transform="translate(-901.000000, -1304.000000)">
            <g id="analyze-icon" transform="translate(901.000000, 1304.000000)">
                <circle id="Oval-5-Copy-2" fill="#399597" cx="37.5" cy="37.5" r="37.5"></circle>
                <g id="analysis" transform="translate(23.000000, 23.000000)" fill-rule="nonzero" fill="#FFFFFF">
                    <path d="M14.6694387,0 C6.56771726,0 0,6.56771726 0,14.6694387 C0,22.7711601 6.56771726,29.3388773 14.6694387,29.3388773 C22.7711601,29.3388773 29.3388773,22.7711601 29.3388773,14.6694387 C29.3300582,6.57138462 22.7674927,0.00881912682 14.6694387,0 Z M14.6694387,1.3970894 C18.9843493,1.4004948 23.0277879,3.50346362 25.5080582,7.03434511 L23.7616965,8.78070686 C23.3367193,8.52355509 22.850183,8.38594179 22.3534304,8.38253638 C20.8102578,8.38253638 19.5592516,9.63354262 19.5592516,11.1767152 C19.5616965,11.6739917 19.6985239,12.1613139 19.9553264,12.5870769 L15.3812557,17.1611476 C14.5151476,16.6330478 13.4266403,16.6330478 12.5605322,17.1611476 L9.38355094,13.9841663 C9.64035343,13.5584033 9.77718087,13.0710811 9.77962578,12.5738046 C9.78154678,11.0336881 8.53464449,9.78364241 6.99452807,9.78172141 C5.72081913,9.78014969 4.6079501,10.6417173 4.29046154,11.8752599 L1.69886071,11.8752599 C3.02146778,5.76762162 8.4202578,1.4062578 14.6694387,1.3970894 Z M23.7505198,11.1767152 C23.7505198,11.9483451 23.1250603,12.5738046 22.3534304,12.5738046 C21.5818004,12.5738046 20.956341,11.9483451 20.956341,11.1767152 C20.956341,10.4050852 21.5818004,9.77962578 22.3534304,9.77962578 C23.1250603,9.77962578 23.7505198,10.4050852 23.7505198,11.1767152 Z M15.3679834,19.5592516 C15.3679834,20.3308815 14.7425239,20.956341 13.970894,20.956341 C13.199264,20.956341 12.5738046,20.3308815 12.5738046,19.5592516 C12.5738046,18.7876216 13.199264,18.1621622 13.970894,18.1621622 C14.7425239,18.1621622 15.3679834,18.7876216 15.3679834,19.5592516 Z M8.38253638,12.5738046 C8.38253638,13.3454345 7.75707692,13.970894 6.98544699,13.970894 C6.21381705,13.970894 5.58835759,13.3454345 5.58835759,12.5738046 C5.58835759,11.8021746 6.21381705,11.1767152 6.98544699,11.1767152 C7.75707692,11.1767152 8.38253638,11.8021746 8.38253638,12.5738046 Z M21.1182287,26.2745364 C19.1455385,27.3698545 16.9259127,27.9437089 14.6694387,27.9417006 C7.34432432,27.9466778 1.40206653,22.0126279 1.3970894,14.6875135 C1.39674012,14.2147734 1.4217131,13.7422952 1.47183368,13.272262 L4.29046154,13.272262 C4.60803742,14.5021372 5.71523077,15.3630936 6.98544699,15.367896 C7.48272349,15.3654511 7.97004574,15.2286237 8.39580873,14.9718212 L11.57279,18.1488025 C11.3159875,18.5745655 11.1791601,19.0618877 11.1767152,19.5591642 C11.1767152,21.1023368 12.4277214,22.353343 13.970894,22.353343 C15.5140665,22.353343 16.7650728,21.1023368 16.7650728,19.5591642 C16.7626279,19.0618877 16.6258004,18.5745655 16.3689979,18.1488025 L20.9430686,13.5747318 C21.3688316,13.8315343 21.8561538,13.9683617 22.3534304,13.9708067 C23.8966029,13.9708067 25.1476091,12.7198004 25.1476091,11.1766279 C25.1451642,10.6793514 25.0083368,10.1920291 24.7515343,9.76626611 L26.2743617,8.24413721 C29.8295177,14.6469979 27.5210021,22.7194678 21.1182287,26.2745364 Z" id="Shape"></path>
                </g>
            </g>
        </g>
    </g>
</svg>