<?xml version="1.0" encoding="UTF-8"?>
<svg width="75px" height="75px" viewBox="0 0 75 75" version="1.1" xmlns="http://www.w3.org/2000/svg" xmlns:xlink="http://www.w3.org/1999/xlink">
    <!-- Generator: Sketch 43.2 (39069) - http://www.bohemiancoding.com/sketch -->
    <title>extract-icon</title>
    <desc>Created with Sketch.</desc>
    <defs></defs>
    <g id="Page-1" stroke="none" stroke-width="1" fill="none" fill-rule="evenodd">
        <g id="Desktop-HD" transform="translate(-265.000000, -1304.000000)">
            <g id="extract-icon" transform="translate(265.000000, 1304.000000)">
                <circle id="Oval-5-Copy-4" fill="#399597" cx="37.5" cy="37.5" r="37.5"></circle>
                <g id="Group" transform="translate(16.000000, 25.000000)">
                    <g id="select-word" stroke="#FFFFFF" stroke-width="1.5" fill-rule="nonzero">
                        <path d="M35.9163797,22.8727273 L37.7166799,24.3717073 C37.9819815,24.5926049 37.9316033,24.8522581 37.5961326,24.9540951 L31.4256311,26.8272393 L33.8943494,31.5727826 C34.2102126,32.1799571 33.9612798,32.9057583 33.3370446,33.1945055 L31.9636651,33.8297779 C31.3400109,34.1182563 30.580426,33.863832 30.2625183,33.2527275 L27.7937999,28.5071842 L22.3809452,31.9920538 C22.0898169,32.1794862 21.8537665,32.0560149 21.8537108,31.7093049 L21.8522913,22.8727273 C21.8522913,22.8727273 19.8054117,22.8727273 18.7819719,22.8727273 C12.9348256,22.8727273 1.24053287,22.8727273 1.24053287,22.8727273 C0.555405487,22.8727273 0,22.3186641 0,21.6348802 L0,1.23784704 C0,0.554202997 0.559405686,0 1.24053287,0 L41.7594671,0 C42.4445945,0 43,0.554063152 43,1.23784704 L43,22.8727273 L35.9163797,22.8727273 Z M23.1325273,12.2285357 L35.9305957,22.8727273 L40.1751551,22.8727273 L23.9695098,8.8929372 C22.8883343,8.37821657 19.4388328,8.91255823 18.7307506,11.2603845 L18.7307506,22.8727273 L21.8514524,22.8727273 L21.8514524,17.6509098 L21.8505098,11.7831342 C21.8504546,11.4395439 22.0630704,11.3380761 22.3307809,11.5609793 L23.1325273,12.2285357 Z M5.60869565,14.8363636 C7.32958289,14.8363636 8.72463768,13.4525165 8.72463768,11.7454545 C8.72463768,10.0383926 7.32958289,8.65454545 5.60869565,8.65454545 C3.88780839,8.65454545 2.49275362,10.0383926 2.49275362,11.7454545 C2.49275362,13.4525165 3.88780839,14.8363636 5.60869565,14.8363636 Z M10.3436445,8.00636791 L14.3686407,10.3115313 C14.9598783,10.6501401 15.7235759,10.4483472 16.0677534,9.85700361 C16.4143303,9.26153725 16.2092341,8.51040153 15.6150175,8.17008663 L11.5900213,5.86492325 C10.9987837,5.52631442 10.2350861,5.7281073 9.89090867,6.31945092 C9.54433166,6.91491728 9.74942795,7.66605295 10.3436445,8.00636791 Z M27.4848588,0.00468757946 L24.9358472,0.00468757946 L23.8095083,5.26328121 C23.666299,5.93188947 24.0964018,6.58726738 24.7697145,6.72923463 C25.4477214,6.87219164 26.1047578,6.44539008 26.2477311,5.77815736 L27.4848588,0.00468757946 Z M16.3362788,2.18338861 L18.385563,6.74917841 C18.6658339,7.37362 19.400608,7.6497641 20.0294515,7.37203424 C20.6626792,7.0923681 20.9418578,6.36515329 20.6628068,5.74342964 L18.6135225,1.17763982 C18.3332516,0.553198274 17.5984776,0.277054119 16.969634,0.554783979 C16.3364064,0.834450119 16.0572278,1.56166497 16.3362788,2.18338861 Z" id="Combined-Shape-Copy"></path>
                    </g>
                    <rect id="Rectangle" fill="#399597" x="19.0709586" y="22.2133333" width="2.43819145" height="1.36"></rect>
                    <polygon id="Rectangle-Copy" fill="#399597" points="35.6743107 22.2133333 38.8890165 22.2133333 40.2141304 23.3505437 37.0211948 23.3505437"></polygon>
                </g>
            </g>
        </g>
    </g>
</svg>