<?xml version="1.0" encoding="UTF-8"?>
<svg width="19px" height="19px" viewBox="0 0 19 19" version="1.1" xmlns="http://www.w3.org/2000/svg" xmlns:xlink="http://www.w3.org/1999/xlink">
    <!-- Generator: Sketch 43.2 (39069) - http://www.bohemiancoding.com/sketch -->
    <title>validation-incorrect</title>
    <desc>Created with Sketch.</desc>
    <defs></defs>
    <g id="Page-1" stroke="none" stroke-width="1" fill="none" fill-rule="evenodd">
        <g id="Desktop-HD" transform="translate(-532.000000, -1826.000000)" fill-rule="nonzero" fill="#0C1A24">
            <g id="incorrect" transform="translate(521.000000, 1815.000000)">
                <g id="validation-incorrect" transform="translate(11.666667, 11.666667)">
                    <path d="M12.4778889,9.07433333 L17.5847778,3.96666667 C18.3337778,3.21766667 18.3337778,1.99188889 17.5847778,1.24288889 L16.9042222,0.562333333 C16.1552222,-0.187444444 14.9294444,-0.187444444 14.1804444,0.562333333 L9.07355556,5.67 L3.96588889,0.562333333 C3.21766667,-0.186666667 1.99188889,-0.186666667 1.24288889,0.562333333 L0.561555556,1.24288889 C-0.186666667,1.99188889 -0.186666667,3.21766667 0.561555556,3.96666667 L5.66844444,9.07355556 L0.561555556,14.1812222 C-0.186666667,14.9302222 -0.186666667,16.156 0.561555556,16.9042222 L1.24288889,17.5847778 C1.99188889,18.3337778 3.21766667,18.3337778 3.96588889,17.5847778 L9.07355556,12.4786667 L14.1804444,17.5847778 C14.9294444,18.3337778 16.1552222,18.3337778 16.9042222,17.5847778 L17.5847778,16.9042222 C18.3337778,16.1552222 18.3337778,14.9294444 17.5847778,14.1812222 L12.4778889,9.07433333 Z" id="Shape"></path>
                </g>
            </g>
        </g>
    </g>
</svg>