<?xml version="1.0" encoding="UTF-8"?>
<svg width="130px" height="37px" viewBox="0 0 130 37" version="1.1" xmlns="http://www.w3.org/2000/svg" xmlns:xlink="http://www.w3.org/1999/xlink">
    <!-- Generator: Sketch 53.2 (72643) - https://sketchapp.com -->
    <title>logo</title>
    <desc>Created with Sketch.</desc>
    <defs>
        <linearGradient x1="0%" y1="50%" x2="72.8493012%" y2="50%" id="linearGradient-1">
            <stop stop-color="#0C1A24" stop-opacity="0" offset="0%"></stop>
            <stop stop-color="#0C1A24" offset="100%"></stop>
        </linearGradient>
    </defs>
    <g id="Page-1" stroke="none" stroke-width="1" fill="none" fill-rule="evenodd">
        <g id="logo" transform="translate(0.000000, -9.000000)" fill-rule="nonzero">
            <rect id="Rectangle-4" fill="url(#linearGradient-1)" x="0" y="43" width="130" height="3"></rect>
            <path d="M3.848,32 C3.50666496,32 3.336,31.829335 3.336,31.488 L3.336,10.112 C3.336,9.77066496 3.50666496,9.6 3.848,9.6 L6.408,9.6 C6.70666816,9.6 6.91999936,9.71733216 7.048,9.952 L16.008,24.608 C16.0506669,24.6933338 16.0986664,24.7253334 16.152,24.704 C16.2053336,24.6826666 16.232,24.6293338 16.232,24.544 L16.232,10.112 C16.232,9.77066496 16.402665,9.6 16.744,9.6 L19.432,9.6 C19.773335,9.6 19.944,9.77066496 19.944,10.112 L19.944,31.488 C19.944,31.829335 19.773335,32 19.432,32 L16.808,32 C16.5093318,32 16.2960006,31.8826678 16.168,31.648 L7.208,16.896 C7.16533312,16.8106662 7.1173336,16.7786666 7.064,16.8 C7.0106664,16.8213334 6.984,16.8746662 6.984,16.96 L7.016,31.488 C7.016,31.829335 6.84533504,32 6.504,32 L3.848,32 Z M31.56,29.12 C32.3493373,29.0986666 33.0373304,28.9333349 33.624,28.624 C34.2106696,28.3146651 34.6853315,27.893336 35.048,27.36 C35.1546672,27.1893325 35.2933325,27.104 35.464,27.104 C35.5706672,27.104 35.6666662,27.1359997 35.752,27.2 L37.288,28.416 C37.4373341,28.5653341 37.512,28.7039994 37.512,28.832 C37.512,28.9173338 37.4800003,29.0133328 37.416,29.12 C36.7973302,30.1013382 35.954672,30.8693306 34.888,31.424 C33.821328,31.9786694 32.5946736,32.256 31.208,32.256 C29.5226582,32.256 28.109339,31.856004 26.968,31.056 C25.826661,30.255996 25.0000026,29.1413405 24.488,27.712 C24.0613312,26.5386608 23.848,25.2160074 23.848,23.744 C23.848,22.2719926 23.9653322,21.1413373 24.2,20.352 C24.6053354,18.8373258 25.4053274,17.6320045 26.6,16.736 C27.7946726,15.8399955 29.2453248,15.392 30.952,15.392 C34.9413533,15.392 37.2773299,17.5786448 37.96,21.952 C38.0666672,22.6560035 38.1413331,23.5306614 38.184,24.576 C38.184,24.917335 38.013335,25.088 37.672,25.088 L27.752,25.088 C27.6239994,25.088 27.56,25.1519994 27.56,25.28 C27.56,25.8560029 27.6239994,26.3253315 27.752,26.688 C27.9866678,27.4560038 28.4346634,28.0533312 29.096,28.48 C29.7573366,28.9066688 30.5786618,29.12 31.56,29.12 Z M30.92,18.592 C30.1093293,18.592 29.4426693,18.7893314 28.92,19.184 C28.3973307,19.5786686 28.040001,20.1279965 27.848,20.832 C27.6986659,21.2586688 27.6133334,21.7066643 27.592,22.176 C27.5706666,22.3040006 27.6239994,22.368 27.752,22.368 L34.184,22.368 C34.3120006,22.368 34.376,22.3040006 34.376,22.176 C34.2906662,21.5359968 34.2266669,21.1520006 34.184,21.024 C33.991999,20.2773296 33.6133362,19.6853355 33.048,19.248 C32.4826638,18.8106645 31.7733376,18.592 30.92,18.592 Z M47.816,15.392 C49.1600067,15.392 50.3493282,15.6266643 51.384,16.096 C52.4186718,16.5653357 53.2133306,17.2106626 53.768,18.032 C54.3226694,18.8533374 54.6,19.7866614 54.6,20.832 L54.6,31.488 C54.6,31.829335 54.429335,32 54.088,32 L51.4,32 C51.058665,32 50.888,31.829335 50.888,31.488 L50.888,30.688 C50.888,30.6026662 50.8666669,30.5546667 50.824,30.544 C50.7813331,30.5333333 50.7280003,30.5493331 50.664,30.592 C49.5119942,31.7013389 47.9760096,32.256 46.056,32.256 C44.4773254,32.256 43.1813384,31.8506707 42.168,31.04 C41.1546616,30.2293293 40.648,29.024008 40.648,27.424 C40.648,25.7599917 41.2293275,24.4640046 42.392,23.536 C43.5546725,22.6079954 45.1919894,22.144 47.304,22.144 L50.696,22.144 C50.8240006,22.144 50.888,22.0800006 50.888,21.952 L50.888,21.216 C50.888,20.3839958 50.6373358,19.738669 50.136,19.28 C49.6346642,18.821331 48.8933382,18.592 47.912,18.592 C47.1653296,18.592 46.5466691,18.725332 46.056,18.992 C45.5653309,19.258668 45.2346675,19.6266643 45.064,20.096 C44.9786662,20.3946682 44.7866682,20.5333334 44.488,20.512 L41.608,20.16 C41.4373325,20.1386666 41.3093338,20.090667 41.224,20.016 C41.1386662,19.941333 41.1066666,19.8506672 41.128,19.744 C41.320001,18.4639936 42.0293272,17.4186707 43.256,16.608 C44.4826728,15.7973293 46.0026576,15.392 47.816,15.392 Z M47.08,29.312 C48.1253386,29.312 49.0213296,29.0346694 49.768,28.48 C50.5146704,27.9253306 50.888,27.2213376 50.888,26.368 L50.888,24.896 C50.888,24.7679994 50.8240006,24.704 50.696,24.704 L48.04,24.704 C46.9093277,24.704 46.0133366,24.9173312 45.352,25.344 C44.6906634,25.7706688 44.36,26.3786627 44.36,27.168 C44.36,27.8506701 44.6159974,28.3786648 45.128,28.752 C45.6400026,29.1253352 46.2906627,29.312 47.08,29.312 Z M65.896,15.456 C66.5146698,15.456 67.0799974,15.5733322 67.592,15.808 C67.8480013,15.9360006 67.9440003,16.1493318 67.88,16.448 L67.368,19.104 C67.3466666,19.2746675 67.2880005,19.3813331 67.192,19.424 C67.0959995,19.4666669 66.952001,19.4666669 66.76,19.424 C66.5039987,19.3386662 66.1626688,19.296 65.736,19.296 C65.4799987,19.296 65.2773341,19.3066666 65.128,19.328 C64.2319955,19.3706669 63.4853363,19.6853304 62.888,20.272 C62.2906637,20.8586696 61.992,21.6213286 61.992,22.56 L61.992,31.488 C61.992,31.829335 61.821335,32 61.48,32 L58.792,32 C58.450665,32 58.28,31.829335 58.28,31.488 L58.28,16.16 C58.28,15.818665 58.450665,15.648 58.792,15.648 L61.48,15.648 C61.821335,15.648 61.992,15.818665 61.992,16.16 L61.992,17.408 C61.992,17.4933338 62.0133331,17.5466666 62.056,17.568 C62.0986669,17.5893334 62.1413331,17.5573338 62.184,17.472 C63.0800045,16.1279933 64.3173254,15.456 65.896,15.456 Z M77.64,29.12 C78.4293373,29.0986666 79.1173304,28.9333349 79.704,28.624 C80.2906696,28.3146651 80.7653315,27.893336 81.128,27.36 C81.2346672,27.1893325 81.3733325,27.104 81.544,27.104 C81.6506672,27.104 81.7466662,27.1359997 81.832,27.2 L83.368,28.416 C83.5173341,28.5653341 83.592,28.7039994 83.592,28.832 C83.592,28.9173338 83.5600003,29.0133328 83.496,29.12 C82.8773302,30.1013382 82.034672,30.8693306 80.968,31.424 C79.901328,31.9786694 78.6746736,32.256 77.288,32.256 C75.6026582,32.256 74.189339,31.856004 73.048,31.056 C71.906661,30.255996 71.0800026,29.1413405 70.568,27.712 C70.1413312,26.5386608 69.928,25.2160074 69.928,23.744 C69.928,22.2719926 70.0453322,21.1413373 70.28,20.352 C70.6853354,18.8373258 71.4853274,17.6320045 72.68,16.736 C73.8746726,15.8399955 75.3253248,15.392 77.032,15.392 C81.0213533,15.392 83.3573299,17.5786448 84.04,21.952 C84.1466672,22.6560035 84.2213331,23.5306614 84.264,24.576 C84.264,24.917335 84.093335,25.088 83.752,25.088 L73.832,25.088 C73.7039994,25.088 73.64,25.1519994 73.64,25.28 C73.64,25.8560029 73.7039994,26.3253315 73.832,26.688 C74.0666678,27.4560038 74.5146634,28.0533312 75.176,28.48 C75.8373366,28.9066688 76.6586618,29.12 77.64,29.12 Z M77,18.592 C76.1893293,18.592 75.5226693,18.7893314 75,19.184 C74.4773307,19.5786686 74.120001,20.1279965 73.928,20.832 C73.7786659,21.2586688 73.6933334,21.7066643 73.672,22.176 C73.6506666,22.3040006 73.7039994,22.368 73.832,22.368 L80.264,22.368 C80.3920006,22.368 80.456,22.3040006 80.456,22.176 C80.3706662,21.5359968 80.3066669,21.1520006 80.264,21.024 C80.071999,20.2773296 79.6933362,19.6853355 79.128,19.248 C78.5626638,18.8106645 77.8533376,18.592 77,18.592 Z M93.768,32.192 C92.4239933,32.192 91.2453384,31.9946686 90.232,31.6 C89.2186616,31.2053314 88.4346694,30.6613368 87.88,29.968 C87.3253306,29.2746632 87.048,28.5013376 87.048,27.648 L87.048,27.488 C87.048,27.146665 87.218665,26.976 87.56,26.976 L90.12,26.976 C90.461335,26.976 90.632,27.0506659 90.632,27.2 L90.632,27.424 C90.632,27.957336 90.9253304,28.4213314 91.512,28.816 C92.0986696,29.2106686 92.8399955,29.408 93.736,29.408 C94.5893376,29.408 95.282664,29.2320018 95.816,28.88 C96.349336,28.5279982 96.616,28.085336 96.616,27.552 C96.616,27.0613309 96.3973355,26.6933346 95.96,26.448 C95.5226645,26.2026654 94.8133382,25.9413347 93.832,25.664 L92.616,25.28 C91.5279946,24.9599984 90.6106704,24.6186685 89.864,24.256 C89.1173296,23.8933315 88.4880026,23.3973365 87.976,22.768 C87.4639974,22.1386635 87.208,21.3333382 87.208,20.352 C87.208,18.8586592 87.7893275,17.6693378 88.952,16.784 C90.1146725,15.8986622 91.6559904,15.456 93.576,15.456 C94.8773398,15.456 96.0186618,15.6639979 97,16.08 C97.9813382,16.4960021 98.7439973,17.0719963 99.288,17.808 C99.8320027,18.5440037 100.104,19.3813286 100.104,20.32 C100.104,20.4266672 100.056,20.517333 99.96,20.592 C99.8639995,20.666667 99.7413341,20.704 99.592,20.704 L97.128,20.704 C96.786665,20.704 96.616,20.6400006 96.616,20.512 L96.616,20.32 C96.616,19.7653306 96.3440027,19.3013352 95.8,18.928 C95.2559973,18.5546648 94.5146714,18.368 93.576,18.368 C92.7439958,18.368 92.0666693,18.5226651 91.544,18.832 C91.0213307,19.1413349 90.76,19.5733306 90.76,20.128 C90.76,20.6400026 91.0053309,21.029332 91.496,21.296 C91.9866691,21.562668 92.8079942,21.8559984 93.96,22.176 L94.696,22.368 C95.8480058,22.709335 96.8079962,23.050665 97.576,23.392 C98.3440038,23.733335 98.994664,24.2239968 99.528,24.864 C100.061336,25.5040032 100.328,26.3253283 100.328,27.328 C100.328,28.8426742 99.7306726,30.0319957 98.536,30.896 C97.3413274,31.7600043 95.7520099,32.192 93.768,32.192 Z M112.136,18.144 C112.136,18.485335 111.965335,18.656 111.624,18.656 L108.52,18.656 C108.391999,18.656 108.328,18.7199994 108.328,18.848 L108.328,26.4 C108.328,27.2320042 108.503998,27.8293315 108.856,28.192 C109.208002,28.5546685 109.767996,28.736 110.536,28.736 L111.368,28.736 C111.709335,28.736 111.88,28.906665 111.88,29.248 L111.88,31.392 C111.88,31.733335 111.709335,31.9146666 111.368,31.936 L109.832,31.968 C108.146658,31.968 106.888004,31.6746696 106.056,31.088 C105.223996,30.5013304 104.797333,29.408008 104.776,27.808 L104.776,18.848 C104.776,18.7199994 104.712001,18.656 104.584,18.656 L102.92,18.656 C102.578665,18.656 102.408,18.485335 102.408,18.144 L102.408,16.16 C102.408,15.818665 102.578665,15.648 102.92,15.648 L104.584,15.648 C104.712001,15.648 104.776,15.5840006 104.776,15.456 L104.776,11.872 C104.776,11.530665 104.946665,11.36 105.288,11.36 L107.816,11.36 C108.157335,11.36 108.328,11.530665 108.328,11.872 L108.328,15.456 C108.328,15.5840006 108.391999,15.648 108.52,15.648 L111.624,15.648 C111.965335,15.648 112.136,15.818665 112.136,16.16 L112.136,18.144 Z" id="Nearest" fill="#0C1A24"></path>
        </g>
    </g>
</svg>