<?xml version="1.0" encoding="UTF-8" standalone="no"?>
<svg width="411px" height="342px" viewBox="0 0 411 342" version="1.1" xmlns="http://www.w3.org/2000/svg" xmlns:xlink="http://www.w3.org/1999/xlink">
    <!-- Generator: Sketch 39.1 (31720) - http://www.bohemiancoding.com/sketch -->
    <title>twitter</title>
    <desc>Created with Sketch.</desc>
    <defs></defs>
    <g id="Page-1" stroke="none" stroke-width="1" fill="none" fill-rule="evenodd">
        <g id="twitter" fill="#16213b">
            <path d="M403.632,40.18 C394.519,44.221 385.059,47.409 375.352,49.717 C386.048,39.553 394.09,26.84 398.627,12.65 L398.627,12.65 C399.922,8.599 395.522,5.096 391.864,7.265 L391.864,7.265 C378.36,15.275 363.814,21.284 348.629,25.127 C347.748,25.35 346.839,25.463 345.927,25.463 C343.161,25.463 340.472,24.436 338.357,22.572 C322.201,8.333 301.422,0.491 279.849,0.491 C270.514,0.491 261.089,1.946 251.835,4.816 C223.163,13.709 201.04,37.36 194.099,66.54 C191.495,77.485 190.79,88.44 192.002,99.1 C192.141,100.325 191.562,101.18 191.205,101.581 C190.578,102.284 189.689,102.687 188.766,102.687 C188.663,102.687 188.557,102.682 188.452,102.672 C125.69,96.841 69.094,66.604 29.089,17.532 L29.089,17.532 C27.049,15.029 23.137,15.336 21.511,18.125 L21.511,18.125 C13.677,31.565 9.537,46.937 9.537,62.579 C9.537,86.551 19.168,109.142 35.897,125.611 C28.862,123.943 22.053,121.316 15.728,117.803 L15.728,117.803 C12.668,116.103 8.903,118.288 8.86,121.788 L8.86,121.788 C8.422,157.4 29.272,189.088 60.506,203.357 C59.877,203.372 59.248,203.379 58.618,203.379 C53.667,203.379 48.654,202.901 43.72,201.958 L43.72,201.958 C40.274,201.3 37.379,204.569 38.449,207.91 L38.449,207.91 C48.587,239.561 75.839,262.891 108.451,268.188 C81.385,286.357 49.866,295.941 17.061,295.941 L6.834,295.935 C3.683,295.935 1.018,297.989 0.215,301.041 C-0.576,304.047 0.881,307.218 3.568,308.781 C40.534,330.294 82.699,341.664 125.523,341.664 C163.008,341.664 198.072,334.225 229.742,319.555 C258.775,306.106 284.431,286.881 305.997,262.414 C326.087,239.622 341.797,213.311 352.689,184.213 C363.072,156.476 368.56,126.88 368.56,98.624 L368.56,97.278 C368.559,92.741 370.611,88.472 374.191,85.566 C387.776,74.536 399.606,61.552 409.351,46.975 L409.351,46.975 C411.924,43.126 407.866,38.302 403.632,40.18 L403.632,40.18 L403.632,40.18 Z" id="Shape"></path>
        </g>
    </g>
</svg>