<?xml version="1.0" encoding="UTF-8"?>
<svg width="75px" height="75px" viewBox="0 0 75 75" version="1.1" xmlns="http://www.w3.org/2000/svg" xmlns:xlink="http://www.w3.org/1999/xlink">
    <!-- Generator: Sketch 43.2 (39069) - http://www.bohemiancoding.com/sketch -->
    <title>verify-icon</title>
    <desc>Created with Sketch.</desc>
    <defs></defs>
    <g id="Page-1" stroke="none" stroke-width="1" fill="none" fill-rule="evenodd">
        <g id="Desktop-HD" transform="translate(-583.000000, -1304.000000)">
            <g id="verify-icon" transform="translate(583.000000, 1304.000000)">
                <circle id="Oval-5-Copy" fill="#399597" cx="37.5" cy="37.5" r="37.5"></circle>
                <g id="verified" transform="translate(23.000000, 23.000000)" fill-rule="nonzero" fill="#FFFFFF">
                    <path d="M25.606582,4.39335938 C22.773457,1.56029297 19.0066406,0 15,0 C10.9933008,0 7.22642578,1.56029297 4.39335938,4.39335938 C1.56023438,7.22648438 0,10.9933594 0,15 C0,19.0066406 1.56023438,22.773457 4.39335938,25.606582 C7.22648438,28.439707 10.9933008,30 15,30 C19.0066406,30 22.773457,28.439707 25.606582,25.606582 C28.439707,22.773457 30,19.0066406 30,15 C30,10.9933594 28.439707,7.22654297 25.606582,4.39335938 Z M15,28.2421875 C7.69822266,28.2421875 1.7578125,22.3017773 1.7578125,15 C1.7578125,7.69822266 7.69822266,1.7578125 15,1.7578125 C22.3017773,1.7578125 28.2421875,7.69822266 28.2421875,15 C28.2421875,22.3017773 22.3017773,28.2421875 15,28.2421875 Z" id="Shape"></path>
                    <path d="M22.1663086,10.1870508 C21.823125,9.84392578 21.2666016,9.84392578 20.923418,10.1871094 L13.1621484,17.9483789 L9.07658203,13.8628125 C8.73339844,13.5196289 8.176875,13.5196289 7.83363281,13.8628125 C7.49039062,14.2059961 7.49039062,14.7625195 7.83363281,15.1057617 L12.5406445,19.8127734 C12.7122656,19.9843945 12.937207,20.0701758 13.1620898,20.0701758 C13.3869727,20.0701758 13.6119727,19.9843359 13.7835352,19.8127734 L22.1663086,11.43 C22.5095508,11.0868164 22.5095508,10.530293 22.1663086,10.1870508 Z" id="Shape"></path>
                </g>
            </g>
        </g>
    </g>
</svg>